<?xml version="1.0" standalone="no"?>
<!DOCTYPE svg PUBLIC "-//W3C//DTD SVG 20010904//EN"
 "http://www.w3.org/TR/2001/REC-SVG-20010904/DTD/svg10.dtd">
<svg version="1.0" xmlns="http://www.w3.org/2000/svg"
 width="260.000000pt" height="260.000000pt" viewBox="0 0 260.000000 260.000000"
 preserveAspectRatio="xMidYMid meet">
<metadata>
Created by potrace 1.11, written by Peter Selinger 2001-2013
</metadata>
<g transform="translate(0.000000,260.000000) scale(0.100000,-0.100000)"
fill="#000000" stroke="none">
<path d="M1123 2574 c-118 -78 -91 -255 43 -289 80 -20 150 9 185 76 55 108
-12 227 -133 236 -45 4 -59 0 -95 -23z"/>
<path d="M1406 2321 c-40 -27 -55 -57 -56 -113 0 -41 5 -52 35 -83 20 -19 42
-36 50 -36 8 -1 25 -2 38 -3 60 -5 120 46 130 110 7 43 -23 105 -61 127 -40
22 -100 22 -136 -2z"/>
<path d="M1118 2181 c-32 -29 -38 -57 -26 -125 2 -11 -3 -20 -12 -21 -8 -2
-35 -6 -60 -10 -120 -18 -232 -74 -255 -127 -27 -66 6 -171 87 -271 47 -59 47
-60 45 -126 l-2 -66 -263 -416 c-144 -229 -268 -434 -276 -456 -22 -64 -15
-167 17 -229 60 -118 237 -226 462 -283 153 -38 235 -46 465 -46 226 0 293 6
437 40 251 59 438 172 493 298 28 63 34 123 20 190 -9 43 -46 110 -176 318
-91 145 -178 282 -192 304 -15 22 -32 49 -38 60 -6 11 -39 65 -75 120 -62 96
-64 102 -66 170 0 38 2 72 6 75 23 17 84 105 106 151 45 100 37 175 -23 218
-27 19 -154 72 -167 70 -3 0 -24 2 -48 6 -23 4 -54 8 -68 11 -15 2 -61 6 -103
9 -64 4 -83 2 -116 -15 -22 -11 -40 -16 -40 -10 0 5 4 10 8 10 5 0 14 11 20
25 50 109 -72 205 -160 126z m397 -236 c86 -14 192 -47 219 -69 l29 -22 -35
-21 c-58 -34 -74 -35 -165 -11 -77 20 -111 23 -273 22 -155 -1 -197 -4 -262
-22 -83 -23 -121 -19 -167 17 l-23 18 28 20 c43 31 123 53 259 73 58 8 332 5
390 -5z m-523 -249 c200 -41 465 -39 635 5 42 10 79 17 81 14 3 -3 -18 -28
-46 -55 l-52 -50 0 -96 0 -95 151 -242 c84 -133 205 -325 269 -427 64 -102
122 -200 128 -219 49 -142 -66 -272 -324 -366 -35 -13 -64 -21 -64 -19 0 2
-12 -1 -27 -7 -15 -6 -82 -19 -148 -29 -98 -16 -158 -19 -330 -15 -115 2 -222
6 -237 8 -14 3 -39 8 -55 11 -15 3 -43 8 -60 11 -60 10 -198 57 -268 92 -125
62 -185 119 -206 198 -22 78 -7 119 105 294 27 41 138 218 247 393 l199 317 0
97 0 96 -50 45 c-49 44 -65 71 -36 60 8 -3 48 -13 88 -21z"/>
<path d="M1050 1465 l0 -115 -107 -170 c-60 -93 -120 -189 -134 -212 -14 -24
-74 -119 -132 -211 -59 -93 -111 -185 -117 -205 -14 -52 -12 -115 4 -137 12
-17 14 -16 20 17 13 71 103 128 180 114 44 -8 94 -50 112 -93 8 -18 14 -66 14
-107 l0 -74 35 -6 c20 -4 40 -4 45 -1 6 4 9 44 7 99 -5 103 -20 147 -74 203
l-33 36 1 116 c1 138 10 179 47 216 81 81 218 53 253 -52 11 -33 9 -36 -34
-79 -70 -69 -77 -101 -77 -350 l0 -212 34 -4 c19 -2 39 -2 45 0 8 3 11 68 11
217 -1 224 3 248 46 286 54 47 131 55 188 19 65 -39 74 -77 74 -310 0 -113 1
-207 1 -210 1 -9 75 2 81 11 3 5 5 104 5 222 -1 200 -2 215 -24 260 -30 61
-89 111 -154 129 l-52 15 1 95 c1 81 5 102 24 132 50 82 168 96 239 29 45 -42
47 -65 46 -484 l0 -396 40 9 c22 5 41 11 44 13 2 3 4 81 4 175 l-1 171 31 15
c40 21 115 14 154 -14 47 -33 65 -82 65 -173 0 -43 3 -81 6 -83 4 -2 24 7 45
20 36 24 37 26 37 85 0 34 -5 79 -12 101 -15 51 -76 119 -125 142 -31 14 -41
25 -51 59 -14 42 -66 107 -88 107 -6 0 -22 9 -36 19 -22 18 -25 28 -26 100 -2
96 -25 154 -80 202 -65 57 -141 76 -225 54 -61 -15 -59 0 5 35 l46 24 0 127 0
127 -127 -1 c-69 -1 -161 2 -203 6 l-78 8 0 -116z"/>
<path d="M1387 1053 c-4 -3 -7 -17 -7 -30 0 -19 5 -23 30 -23 34 0 49 22 30
45 -13 16 -42 20 -53 8z"/>
<path d="M1500 1045 c-19 -23 -4 -45 30 -45 22 0 30 5 30 18 0 37 -38 54 -60
27z"/>
<path d="M1400 933 c0 -15 11 -20 55 -26 41 -5 80 6 80 23 0 11 -16 15 -67 16
-52 1 -68 -2 -68 -13z"/>
<path d="M917 869 c-21 -12 -23 -45 -3 -52 24 -9 56 4 56 24 0 24 -30 40 -53
28z"/>
<path d="M1027 869 c-18 -11 -24 -48 -7 -50 6 -1 16 -2 23 -3 17 -3 37 14 37
30 0 20 -32 34 -53 23z"/>
<path d="M923 752 c-9 -21 5 -27 63 -26 49 0 86 15 72 29 -3 3 -34 7 -68 8
-44 2 -64 -1 -67 -11z"/>
<path d="M1215 649 c-4 -12 -3 -25 3 -31 16 -16 56 -5 60 16 7 36 -52 51 -63
15z"/>
<path d="M1337 663 c-4 -3 -7 -17 -7 -30 0 -17 6 -23 23 -23 32 0 49 18 36 42
-10 18 -39 24 -52 11z"/>
<path d="M1234 548 c-9 -14 1 -20 43 -27 47 -9 87 0 91 20 2 13 -10 16 -63 16
-36 0 -68 -4 -71 -9z"/>
<path d="M1767 539 c-24 -14 -21 -46 4 -52 29 -8 49 2 49 24 0 24 -30 40 -53
28z"/>
<path d="M1875 534 c-17 -18 -10 -41 16 -49 26 -8 39 2 39 29 0 29 -34 41 -55
20z"/>
<path d="M671 447 c-18 -18 -13 -44 12 -51 22 -6 51 18 44 38 -5 16 -44 25
-56 13z"/>
<path d="M798 453 c-22 -5 -31 -32 -17 -49 16 -19 53 -11 57 13 3 23 -16 41
-40 36z"/>
<path d="M1770 416 c0 -8 15 -17 35 -20 46 -9 105 2 105 20 0 11 -17 14 -70
14 -53 0 -70 -3 -70 -14z"/>
</g>
</svg>
